<mxfile host="Electron" agent="Mozilla/5.0 (Windows NT 10.0; Win64; x64) AppleWebKit/537.36 (KHTML, like Gecko) draw.io/24.7.17 Chrome/128.0.6613.36 Electron/32.0.1 Safari/537.36" version="24.7.17">
  <diagram name="Page-1" id="eQr88jpQsgpzCfidK-K6">
    <mxGraphModel dx="1050" dy="621" grid="1" gridSize="10" guides="1" tooltips="1" connect="1" arrows="1" fold="1" page="1" pageScale="1" pageWidth="850" pageHeight="1100" math="0" shadow="0">
      <root>
        <mxCell id="0" />
        <mxCell id="1" parent="0" />
        <mxCell id="wd0UZamJandqTKziJQp1-6" value="&lt;font color=&quot;#080808&quot;&gt;Result Visualization&lt;/font&gt;" style="html=1;shadow=0;dashed=0;shape=mxgraph.bootstrap.rect;strokeColor=none;fillColor=none;fontColor=#999999;align=left;spacingLeft=5;whiteSpace=wrap;rounded=0;" vertex="1" parent="1">
          <mxGeometry x="10" y="30" width="200" height="20" as="geometry" />
        </mxCell>
        <mxCell id="wd0UZamJandqTKziJQp1-7" value="Choose what to visualize" style="html=1;shadow=0;dashed=0;shape=mxgraph.bootstrap.rrect;rSize=5;strokeColor=#dddddd;align=left;spacingLeft=10;fontSize=16;whiteSpace=wrap;rounded=0;" vertex="1" parent="1">
          <mxGeometry x="10" y="50" width="290" height="40" as="geometry" />
        </mxCell>
        <mxCell id="wd0UZamJandqTKziJQp1-8" value="" style="shape=triangle;strokeColor=none;fillColor=#000000;direction=south;rounded=0;shadow=1;fontSize=12;fontColor=#000000;align=center;html=1;" vertex="1" parent="1">
          <mxGeometry x="276" y="67" width="10" height="5" as="geometry" />
        </mxCell>
        <mxCell id="wd0UZamJandqTKziJQp1-29" value="" style="group" vertex="1" connectable="0" parent="1">
          <mxGeometry x="30" y="100" width="220" height="30" as="geometry" />
        </mxCell>
        <mxCell id="wd0UZamJandqTKziJQp1-19" value="" style="shape=ellipse;dashed=0;strokeColor=#999999;fillColor=#ffffff;html=1;rounded=0;shadow=1;fontSize=12;fontColor=#000000;align=center;" vertex="1" parent="wd0UZamJandqTKziJQp1-29">
          <mxGeometry y="8" width="14" height="14" as="geometry" />
        </mxCell>
        <mxCell id="wd0UZamJandqTKziJQp1-20" value="&lt;font style=&quot;font-size: 12px;&quot;&gt;Line flows&lt;/font&gt;" style="html=1;shadow=0;dashed=0;shape=mxgraph.bootstrap.rrect;align=center;rSize=3;strokeColor=none;fillColor=#58B957;fontColor=#ffffff;fontStyle=1;fontSize=10;whiteSpace=wrap;rounded=0;" vertex="1" parent="wd0UZamJandqTKziJQp1-29">
          <mxGeometry x="20" width="200" height="30" as="geometry" />
        </mxCell>
        <mxCell id="wd0UZamJandqTKziJQp1-31" value="" style="shape=ellipse;dashed=0;strokeColor=#999999;fillColor=#ffffff;html=1;rounded=0;shadow=1;fontSize=12;fontColor=#000000;align=center;" vertex="1" parent="1">
          <mxGeometry x="30" y="145" width="14" height="14" as="geometry" />
        </mxCell>
        <mxCell id="wd0UZamJandqTKziJQp1-32" value="&lt;font style=&quot;font-size: 12px;&quot;&gt;Line investment annual&lt;/font&gt;" style="html=1;shadow=0;dashed=0;shape=mxgraph.bootstrap.rrect;align=center;rSize=3;strokeColor=#b85450;fillColor=#f8cecc;fontStyle=1;fontSize=10;whiteSpace=wrap;rounded=0;" vertex="1" parent="1">
          <mxGeometry x="50" y="137" width="200" height="30" as="geometry" />
        </mxCell>
        <mxCell id="wd0UZamJandqTKziJQp1-34" value="" style="shape=ellipse;dashed=0;strokeColor=#999999;fillColor=#ffffff;html=1;rounded=0;shadow=1;fontSize=12;fontColor=#000000;align=center;" vertex="1" parent="1">
          <mxGeometry x="30" y="223" width="14" height="14" as="geometry" />
        </mxCell>
        <mxCell id="wd0UZamJandqTKziJQp1-35" value="Generation investment annual" style="html=1;shadow=0;dashed=0;shape=mxgraph.bootstrap.rrect;align=center;rSize=3;strokeColor=none;fillColor=#58B957;fontColor=#ffffff;fontStyle=1;fontSize=10;whiteSpace=wrap;rounded=0;" vertex="1" parent="1">
          <mxGeometry x="50" y="215" width="200" height="30" as="geometry" />
        </mxCell>
        <mxCell id="wd0UZamJandqTKziJQp1-37" value="" style="shape=ellipse;dashed=0;strokeColor=#999999;fillColor=#ffffff;html=1;rounded=0;shadow=1;fontSize=12;fontColor=#000000;align=center;" vertex="1" parent="1">
          <mxGeometry x="30" y="263" width="14" height="14" as="geometry" />
        </mxCell>
        <mxCell id="wd0UZamJandqTKziJQp1-38" value="Generation investment cumulative" style="html=1;shadow=0;dashed=0;shape=mxgraph.bootstrap.rrect;align=center;rSize=3;strokeColor=none;fillColor=#58B957;fontColor=#ffffff;fontStyle=1;fontSize=10;whiteSpace=wrap;rounded=0;" vertex="1" parent="1">
          <mxGeometry x="50" y="255" width="200" height="30" as="geometry" />
        </mxCell>
        <mxCell id="wd0UZamJandqTKziJQp1-39" value="&lt;font color=&quot;#0d0d0d&quot;&gt;Input Visualization&lt;/font&gt;" style="html=1;shadow=0;dashed=0;shape=mxgraph.bootstrap.rect;strokeColor=none;fillColor=none;fontColor=#999999;align=left;spacingLeft=5;whiteSpace=wrap;rounded=0;fontStyle=1" vertex="1" parent="1">
          <mxGeometry x="425" y="30" width="200" height="20" as="geometry" />
        </mxCell>
        <mxCell id="wd0UZamJandqTKziJQp1-40" value="Choose what to visualize" style="html=1;shadow=0;dashed=0;shape=mxgraph.bootstrap.rrect;rSize=5;strokeColor=#dddddd;align=left;spacingLeft=10;fontSize=16;whiteSpace=wrap;rounded=0;" vertex="1" parent="1">
          <mxGeometry x="425" y="50" width="275" height="40" as="geometry" />
        </mxCell>
        <mxCell id="wd0UZamJandqTKziJQp1-41" value="" style="shape=triangle;strokeColor=none;fillColor=#000000;direction=south;rounded=0;shadow=1;fontSize=12;fontColor=#000000;align=center;html=1;" vertex="1" parent="1">
          <mxGeometry x="680" y="67" width="10" height="5" as="geometry" />
        </mxCell>
        <mxCell id="wd0UZamJandqTKziJQp1-42" value="" style="group" vertex="1" connectable="0" parent="1">
          <mxGeometry x="445" y="100" width="220" height="30" as="geometry" />
        </mxCell>
        <mxCell id="wd0UZamJandqTKziJQp1-43" value="" style="shape=ellipse;dashed=0;strokeColor=#999999;fillColor=#ffffff;html=1;rounded=0;shadow=1;fontSize=12;fontColor=#000000;align=center;" vertex="1" parent="wd0UZamJandqTKziJQp1-42">
          <mxGeometry y="8" width="14" height="14" as="geometry" />
        </mxCell>
        <mxCell id="wd0UZamJandqTKziJQp1-44" value="&lt;font style=&quot;font-size: 12px;&quot;&gt;Lines (onshore and offshore&lt;/font&gt;" style="html=1;shadow=0;dashed=0;shape=mxgraph.bootstrap.rrect;align=center;rSize=3;strokeColor=none;fillColor=#58B957;fontColor=#ffffff;fontStyle=1;fontSize=10;whiteSpace=wrap;rounded=0;" vertex="1" parent="wd0UZamJandqTKziJQp1-42">
          <mxGeometry x="20" width="200" height="30" as="geometry" />
        </mxCell>
        <mxCell id="wd0UZamJandqTKziJQp1-45" value="" style="shape=ellipse;dashed=0;strokeColor=#999999;fillColor=#ffffff;html=1;rounded=0;shadow=1;fontSize=12;fontColor=#000000;align=center;" vertex="1" parent="1">
          <mxGeometry x="445" y="148" width="14" height="14" as="geometry" />
        </mxCell>
        <mxCell id="wd0UZamJandqTKziJQp1-46" value="&lt;font style=&quot;font-size: 12px;&quot;&gt;Existing Generation&lt;/font&gt;" style="html=1;shadow=0;dashed=0;shape=mxgraph.bootstrap.rrect;align=center;rSize=3;strokeColor=#b85450;fillColor=#f8cecc;fontStyle=1;fontSize=10;whiteSpace=wrap;rounded=0;" vertex="1" parent="1">
          <mxGeometry x="465" y="140" width="200" height="30" as="geometry" />
        </mxCell>
        <mxCell id="wd0UZamJandqTKziJQp1-47" value="" style="shape=ellipse;dashed=0;strokeColor=#999999;fillColor=#ffffff;html=1;rounded=0;shadow=1;fontSize=12;fontColor=#000000;align=center;" vertex="1" parent="1">
          <mxGeometry x="445" y="188" width="14" height="14" as="geometry" />
        </mxCell>
        <mxCell id="wd0UZamJandqTKziJQp1-48" value="&lt;font style=&quot;font-size: 12px;&quot;&gt;Investible Capacities&lt;/font&gt;" style="html=1;shadow=0;dashed=0;shape=mxgraph.bootstrap.rrect;align=center;rSize=3;strokeColor=#9673a6;fillColor=#e1d5e7;fontStyle=1;fontSize=10;whiteSpace=wrap;rounded=0;" vertex="1" parent="1">
          <mxGeometry x="465" y="180" width="200" height="30" as="geometry" />
        </mxCell>
        <mxCell id="wd0UZamJandqTKziJQp1-49" value="" style="shape=ellipse;dashed=0;strokeColor=#999999;fillColor=#ffffff;html=1;rounded=0;shadow=1;fontSize=12;fontColor=#000000;align=center;" vertex="1" parent="1">
          <mxGeometry x="445" y="228" width="14" height="14" as="geometry" />
        </mxCell>
        <mxCell id="wd0UZamJandqTKziJQp1-50" value="&lt;font style=&quot;font-size: 12px;&quot;&gt;Capacity Factors ??&lt;/font&gt;" style="html=1;shadow=0;dashed=0;shape=mxgraph.bootstrap.rrect;align=center;rSize=3;strokeColor=none;fillColor=#58B957;fontColor=#ffffff;fontStyle=1;fontSize=10;whiteSpace=wrap;rounded=0;" vertex="1" parent="1">
          <mxGeometry x="465" y="220" width="200" height="30" as="geometry" />
        </mxCell>
        <mxCell id="wd0UZamJandqTKziJQp1-51" value="" style="shape=ellipse;dashed=0;strokeColor=#999999;fillColor=#ffffff;html=1;rounded=0;shadow=1;fontSize=12;fontColor=#000000;align=center;" vertex="1" parent="1">
          <mxGeometry x="30" y="300" width="14" height="14" as="geometry" />
        </mxCell>
        <mxCell id="wd0UZamJandqTKziJQp1-52" value="Generation retirement annual" style="html=1;shadow=0;dashed=0;shape=mxgraph.bootstrap.rrect;align=center;rSize=3;strokeColor=none;fillColor=#58B957;fontColor=#ffffff;fontStyle=1;fontSize=10;whiteSpace=wrap;rounded=0;" vertex="1" parent="1">
          <mxGeometry x="50" y="292" width="200" height="30" as="geometry" />
        </mxCell>
        <mxCell id="wd0UZamJandqTKziJQp1-53" value="" style="shape=ellipse;dashed=0;strokeColor=#999999;fillColor=#ffffff;html=1;rounded=0;shadow=1;fontSize=12;fontColor=#000000;align=center;" vertex="1" parent="1">
          <mxGeometry x="31" y="337" width="14" height="14" as="geometry" />
        </mxCell>
        <mxCell id="wd0UZamJandqTKziJQp1-54" value="Generation retirement cumulative" style="html=1;shadow=0;dashed=0;shape=mxgraph.bootstrap.rrect;align=center;rSize=3;strokeColor=none;fillColor=#58B957;fontColor=#ffffff;fontStyle=1;fontSize=10;whiteSpace=wrap;rounded=0;" vertex="1" parent="1">
          <mxGeometry x="51" y="329" width="200" height="30" as="geometry" />
        </mxCell>
        <mxCell id="wd0UZamJandqTKziJQp1-55" value="" style="shape=ellipse;dashed=0;strokeColor=#999999;fillColor=#ffffff;html=1;rounded=0;shadow=1;fontSize=12;fontColor=#000000;align=center;" vertex="1" parent="1">
          <mxGeometry x="30" y="183" width="14" height="14" as="geometry" />
        </mxCell>
        <mxCell id="wd0UZamJandqTKziJQp1-56" value="&lt;font style=&quot;font-size: 12px;&quot;&gt;Line investment cumulative&lt;/font&gt;" style="html=1;shadow=0;dashed=0;shape=mxgraph.bootstrap.rrect;align=center;rSize=3;strokeColor=#b85450;fillColor=#f8cecc;fontStyle=1;fontSize=10;whiteSpace=wrap;rounded=0;" vertex="1" parent="1">
          <mxGeometry x="50" y="175" width="200" height="30" as="geometry" />
        </mxCell>
        <mxCell id="wd0UZamJandqTKziJQp1-57" value="" style="shape=ellipse;dashed=0;strokeColor=#999999;fillColor=#ffffff;html=1;rounded=0;shadow=1;fontSize=12;fontColor=#000000;align=center;" vertex="1" parent="1">
          <mxGeometry x="31" y="376" width="14" height="14" as="geometry" />
        </mxCell>
        <mxCell id="wd0UZamJandqTKziJQp1-58" value="Generation capacity available" style="html=1;shadow=0;dashed=0;shape=mxgraph.bootstrap.rrect;align=center;rSize=3;strokeColor=none;fillColor=#58B957;fontColor=#ffffff;fontStyle=1;fontSize=10;whiteSpace=wrap;rounded=0;" vertex="1" parent="1">
          <mxGeometry x="51" y="368" width="200" height="30" as="geometry" />
        </mxCell>
        <mxCell id="wd0UZamJandqTKziJQp1-59" value="&lt;font color=&quot;#0d0d0d&quot;&gt;Year Selection&lt;/font&gt;" style="html=1;shadow=0;dashed=0;shape=mxgraph.bootstrap.rect;strokeColor=none;fillColor=none;fontColor=#999999;align=left;spacingLeft=5;whiteSpace=wrap;rounded=0;fontStyle=1" vertex="1" parent="1">
          <mxGeometry x="17.5" y="450" width="200" height="20" as="geometry" />
        </mxCell>
        <mxCell id="wd0UZamJandqTKziJQp1-60" value="Choose the year" style="html=1;shadow=0;dashed=0;shape=mxgraph.bootstrap.rrect;rSize=5;strokeColor=#dddddd;align=left;spacingLeft=10;fontSize=16;whiteSpace=wrap;rounded=0;" vertex="1" parent="1">
          <mxGeometry x="17.5" y="470" width="275" height="40" as="geometry" />
        </mxCell>
        <mxCell id="wd0UZamJandqTKziJQp1-61" value="" style="shape=triangle;strokeColor=none;fillColor=#000000;direction=south;rounded=0;shadow=1;fontSize=12;fontColor=#000000;align=center;html=1;" vertex="1" parent="1">
          <mxGeometry x="272.5" y="487" width="10" height="5" as="geometry" />
        </mxCell>
        <mxCell id="wd0UZamJandqTKziJQp1-62" value="" style="group" vertex="1" connectable="0" parent="1">
          <mxGeometry x="37.5" y="520" width="220" height="30" as="geometry" />
        </mxCell>
        <mxCell id="wd0UZamJandqTKziJQp1-63" value="" style="shape=ellipse;dashed=0;strokeColor=#999999;fillColor=#ffffff;html=1;rounded=0;shadow=1;fontSize=12;fontColor=#000000;align=center;" vertex="1" parent="wd0UZamJandqTKziJQp1-62">
          <mxGeometry y="8" width="14" height="14" as="geometry" />
        </mxCell>
        <mxCell id="wd0UZamJandqTKziJQp1-64" value="&lt;font style=&quot;font-size: 12px;&quot;&gt;2031&lt;/font&gt;" style="html=1;shadow=0;dashed=0;shape=mxgraph.bootstrap.rrect;align=center;rSize=3;strokeColor=none;fillColor=#58B957;fontColor=#ffffff;fontStyle=1;fontSize=10;whiteSpace=wrap;rounded=0;" vertex="1" parent="wd0UZamJandqTKziJQp1-62">
          <mxGeometry x="20" width="200" height="30" as="geometry" />
        </mxCell>
        <mxCell id="wd0UZamJandqTKziJQp1-65" value="" style="shape=ellipse;dashed=0;strokeColor=#999999;fillColor=#ffffff;html=1;rounded=0;shadow=1;fontSize=12;fontColor=#000000;align=center;" vertex="1" parent="1">
          <mxGeometry x="37.5" y="568" width="14" height="14" as="geometry" />
        </mxCell>
        <mxCell id="wd0UZamJandqTKziJQp1-66" value="&lt;font style=&quot;font-size: 12px;&quot;&gt;2036&lt;/font&gt;" style="html=1;shadow=0;dashed=0;shape=mxgraph.bootstrap.rrect;align=center;rSize=3;strokeColor=#b85450;fillColor=#f8cecc;fontStyle=1;fontSize=10;whiteSpace=wrap;rounded=0;" vertex="1" parent="1">
          <mxGeometry x="57.5" y="560" width="200" height="30" as="geometry" />
        </mxCell>
        <mxCell id="wd0UZamJandqTKziJQp1-67" value="" style="shape=ellipse;dashed=0;strokeColor=#999999;fillColor=#ffffff;html=1;rounded=0;shadow=1;fontSize=12;fontColor=#000000;align=center;" vertex="1" parent="1">
          <mxGeometry x="37.5" y="608" width="14" height="14" as="geometry" />
        </mxCell>
        <mxCell id="wd0UZamJandqTKziJQp1-68" value="&lt;font style=&quot;font-size: 12px;&quot;&gt;2041&lt;/font&gt;" style="html=1;shadow=0;dashed=0;shape=mxgraph.bootstrap.rrect;align=center;rSize=3;strokeColor=#9673a6;fillColor=#e1d5e7;fontStyle=1;fontSize=10;whiteSpace=wrap;rounded=0;" vertex="1" parent="1">
          <mxGeometry x="57.5" y="600" width="200" height="30" as="geometry" />
        </mxCell>
        <mxCell id="wd0UZamJandqTKziJQp1-69" value="" style="shape=ellipse;dashed=0;strokeColor=#999999;fillColor=#ffffff;html=1;rounded=0;shadow=1;fontSize=12;fontColor=#000000;align=center;" vertex="1" parent="1">
          <mxGeometry x="37.5" y="648" width="14" height="14" as="geometry" />
        </mxCell>
        <mxCell id="wd0UZamJandqTKziJQp1-70" value="&lt;font style=&quot;font-size: 12px;&quot;&gt;2046&lt;/font&gt;" style="html=1;shadow=0;dashed=0;shape=mxgraph.bootstrap.rrect;align=center;rSize=3;strokeColor=none;fillColor=#58B957;fontColor=#ffffff;fontStyle=1;fontSize=10;whiteSpace=wrap;rounded=0;" vertex="1" parent="1">
          <mxGeometry x="57.5" y="640" width="200" height="30" as="geometry" />
        </mxCell>
        <mxCell id="wd0UZamJandqTKziJQp1-71" value="" style="shape=ellipse;dashed=0;strokeColor=#999999;fillColor=#ffffff;html=1;rounded=0;shadow=1;fontSize=12;fontColor=#000000;align=center;" vertex="1" parent="1">
          <mxGeometry x="37.5" y="688" width="14" height="14" as="geometry" />
        </mxCell>
        <mxCell id="wd0UZamJandqTKziJQp1-72" value="&lt;font style=&quot;font-size: 12px;&quot;&gt;2051&lt;/font&gt;" style="html=1;shadow=0;dashed=0;shape=mxgraph.bootstrap.rrect;align=center;rSize=3;strokeColor=#b85450;fillColor=#f8cecc;fontStyle=1;fontSize=10;whiteSpace=wrap;rounded=0;" vertex="1" parent="1">
          <mxGeometry x="57.5" y="680" width="200" height="30" as="geometry" />
        </mxCell>
        <mxCell id="wd0UZamJandqTKziJQp1-73" value="All of the visualizations require selection of Year" style="text;spacingTop=-5;whiteSpace=wrap;html=1;align=left;fontSize=12;fontFamily=Helvetica;fillColor=none;strokeColor=none;rounded=0;shadow=1;labelBackgroundColor=none;" vertex="1" parent="1">
          <mxGeometry x="320" y="468" width="110" height="100" as="geometry" />
        </mxCell>
        <mxCell id="wd0UZamJandqTKziJQp1-74" value="&lt;font color=&quot;#0d0d0d&quot;&gt;Season Selection&lt;/font&gt;" style="html=1;shadow=0;dashed=0;shape=mxgraph.bootstrap.rect;strokeColor=none;fillColor=none;fontColor=#999999;align=left;spacingLeft=5;whiteSpace=wrap;rounded=0;fontStyle=1" vertex="1" parent="1">
          <mxGeometry x="13.5" y="740" width="200" height="20" as="geometry" />
        </mxCell>
        <mxCell id="wd0UZamJandqTKziJQp1-75" value="Choose the season" style="html=1;shadow=0;dashed=0;shape=mxgraph.bootstrap.rrect;rSize=5;strokeColor=#dddddd;align=left;spacingLeft=10;fontSize=16;whiteSpace=wrap;rounded=0;" vertex="1" parent="1">
          <mxGeometry x="13.5" y="760" width="275" height="40" as="geometry" />
        </mxCell>
        <mxCell id="wd0UZamJandqTKziJQp1-76" value="" style="shape=triangle;strokeColor=none;fillColor=#000000;direction=south;rounded=0;shadow=1;fontSize=12;fontColor=#000000;align=center;html=1;" vertex="1" parent="1">
          <mxGeometry x="268.5" y="777" width="10" height="5" as="geometry" />
        </mxCell>
        <mxCell id="wd0UZamJandqTKziJQp1-77" value="" style="group" vertex="1" connectable="0" parent="1">
          <mxGeometry x="31" y="847" width="220" height="30" as="geometry" />
        </mxCell>
        <mxCell id="wd0UZamJandqTKziJQp1-78" value="" style="shape=ellipse;dashed=0;strokeColor=#999999;fillColor=#ffffff;html=1;rounded=0;shadow=1;fontSize=12;fontColor=#000000;align=center;" vertex="1" parent="wd0UZamJandqTKziJQp1-77">
          <mxGeometry y="8" width="14" height="14" as="geometry" />
        </mxCell>
        <mxCell id="wd0UZamJandqTKziJQp1-79" value="&lt;font style=&quot;font-size: 12px;&quot;&gt;Summer&lt;/font&gt;" style="html=1;shadow=0;dashed=0;shape=mxgraph.bootstrap.rrect;align=center;rSize=3;strokeColor=none;fillColor=#58B957;fontColor=#ffffff;fontStyle=1;fontSize=10;whiteSpace=wrap;rounded=0;" vertex="1" parent="wd0UZamJandqTKziJQp1-77">
          <mxGeometry x="20" width="200" height="30" as="geometry" />
        </mxCell>
        <mxCell id="wd0UZamJandqTKziJQp1-80" value="" style="shape=ellipse;dashed=0;strokeColor=#999999;fillColor=#ffffff;html=1;rounded=0;shadow=1;fontSize=12;fontColor=#000000;align=center;" vertex="1" parent="1">
          <mxGeometry x="31" y="895" width="14" height="14" as="geometry" />
        </mxCell>
        <mxCell id="wd0UZamJandqTKziJQp1-81" value="&lt;font style=&quot;font-size: 12px;&quot;&gt;Fall&lt;/font&gt;" style="html=1;shadow=0;dashed=0;shape=mxgraph.bootstrap.rrect;align=center;rSize=3;strokeColor=#b85450;fillColor=#f8cecc;fontStyle=1;fontSize=10;whiteSpace=wrap;rounded=0;" vertex="1" parent="1">
          <mxGeometry x="51" y="887" width="200" height="30" as="geometry" />
        </mxCell>
        <mxCell id="wd0UZamJandqTKziJQp1-82" value="" style="shape=ellipse;dashed=0;strokeColor=#999999;fillColor=#ffffff;html=1;rounded=0;shadow=1;fontSize=12;fontColor=#000000;align=center;" vertex="1" parent="1">
          <mxGeometry x="31" y="935" width="14" height="14" as="geometry" />
        </mxCell>
        <mxCell id="wd0UZamJandqTKziJQp1-83" value="&lt;font style=&quot;font-size: 12px;&quot;&gt;Winter&lt;/font&gt;" style="html=1;shadow=0;dashed=0;shape=mxgraph.bootstrap.rrect;align=center;rSize=3;strokeColor=#9673a6;fillColor=#e1d5e7;fontStyle=1;fontSize=10;whiteSpace=wrap;rounded=0;" vertex="1" parent="1">
          <mxGeometry x="51" y="927" width="200" height="30" as="geometry" />
        </mxCell>
        <mxCell id="wd0UZamJandqTKziJQp1-84" value="" style="shape=ellipse;dashed=0;strokeColor=#999999;fillColor=#ffffff;html=1;rounded=0;shadow=1;fontSize=12;fontColor=#000000;align=center;" vertex="1" parent="1">
          <mxGeometry x="30" y="815" width="14" height="14" as="geometry" />
        </mxCell>
        <mxCell id="wd0UZamJandqTKziJQp1-85" value="&lt;font style=&quot;font-size: 12px;&quot;&gt;Spring&lt;/font&gt;" style="html=1;shadow=0;dashed=0;shape=mxgraph.bootstrap.rrect;align=center;rSize=3;strokeColor=none;fillColor=#58B957;fontColor=#ffffff;fontStyle=1;fontSize=10;whiteSpace=wrap;rounded=0;" vertex="1" parent="1">
          <mxGeometry x="51.5" y="807" width="200" height="30" as="geometry" />
        </mxCell>
        <mxCell id="wd0UZamJandqTKziJQp1-86" value="" style="shape=ellipse;dashed=0;strokeColor=#999999;fillColor=#ffffff;html=1;rounded=0;shadow=1;fontSize=12;fontColor=#000000;align=center;" vertex="1" parent="1">
          <mxGeometry x="31" y="979" width="14" height="14" as="geometry" />
        </mxCell>
        <mxCell id="wd0UZamJandqTKziJQp1-87" value="&lt;font style=&quot;font-size: 12px;&quot;&gt;Peak&lt;/font&gt;" style="html=1;shadow=0;dashed=0;shape=mxgraph.bootstrap.rrect;align=center;rSize=3;strokeColor=#b85450;fillColor=#f8cecc;fontStyle=1;fontSize=10;whiteSpace=wrap;rounded=0;" vertex="1" parent="1">
          <mxGeometry x="51" y="971" width="200" height="30" as="geometry" />
        </mxCell>
        <mxCell id="wd0UZamJandqTKziJQp1-88" value="&lt;font color=&quot;#0d0d0d&quot;&gt;Block Selection&lt;/font&gt;" style="html=1;shadow=0;dashed=0;shape=mxgraph.bootstrap.rect;strokeColor=none;fillColor=none;fontColor=#999999;align=left;spacingLeft=5;whiteSpace=wrap;rounded=0;fontStyle=1" vertex="1" parent="1">
          <mxGeometry x="11" y="1020" width="200" height="20" as="geometry" />
        </mxCell>
        <mxCell id="wd0UZamJandqTKziJQp1-89" value="Choose the block" style="html=1;shadow=0;dashed=0;shape=mxgraph.bootstrap.rrect;rSize=5;strokeColor=#dddddd;align=left;spacingLeft=10;fontSize=16;whiteSpace=wrap;rounded=0;" vertex="1" parent="1">
          <mxGeometry x="11" y="1040" width="275" height="40" as="geometry" />
        </mxCell>
        <mxCell id="wd0UZamJandqTKziJQp1-90" value="" style="shape=triangle;strokeColor=none;fillColor=#000000;direction=south;rounded=0;shadow=1;fontSize=12;fontColor=#000000;align=center;html=1;" vertex="1" parent="1">
          <mxGeometry x="266" y="1057" width="10" height="5" as="geometry" />
        </mxCell>
        <mxCell id="wd0UZamJandqTKziJQp1-91" value="" style="group" vertex="1" connectable="0" parent="1">
          <mxGeometry x="27.5" y="1130" width="220" height="30" as="geometry" />
        </mxCell>
        <mxCell id="wd0UZamJandqTKziJQp1-92" value="" style="shape=ellipse;dashed=0;strokeColor=#999999;fillColor=#ffffff;html=1;rounded=0;shadow=1;fontSize=12;fontColor=#000000;align=center;" vertex="1" parent="wd0UZamJandqTKziJQp1-91">
          <mxGeometry y="8" width="14" height="14" as="geometry" />
        </mxCell>
        <mxCell id="wd0UZamJandqTKziJQp1-93" value="&lt;span style=&quot;font-size: 12px;&quot;&gt;2&lt;/span&gt;" style="html=1;shadow=0;dashed=0;shape=mxgraph.bootstrap.rrect;align=center;rSize=3;strokeColor=none;fillColor=#58B957;fontColor=#ffffff;fontStyle=1;fontSize=10;whiteSpace=wrap;rounded=0;" vertex="1" parent="wd0UZamJandqTKziJQp1-91">
          <mxGeometry x="20" width="200" height="30" as="geometry" />
        </mxCell>
        <mxCell id="wd0UZamJandqTKziJQp1-94" value="" style="shape=ellipse;dashed=0;strokeColor=#999999;fillColor=#ffffff;html=1;rounded=0;shadow=1;fontSize=12;fontColor=#000000;align=center;" vertex="1" parent="1">
          <mxGeometry x="28.5" y="1175" width="14" height="14" as="geometry" />
        </mxCell>
        <mxCell id="wd0UZamJandqTKziJQp1-95" value="&lt;font style=&quot;font-size: 12px;&quot;&gt;3&lt;/font&gt;" style="html=1;shadow=0;dashed=0;shape=mxgraph.bootstrap.rrect;align=center;rSize=3;strokeColor=#b85450;fillColor=#f8cecc;fontStyle=1;fontSize=10;whiteSpace=wrap;rounded=0;" vertex="1" parent="1">
          <mxGeometry x="48.5" y="1167" width="200" height="30" as="geometry" />
        </mxCell>
        <mxCell id="wd0UZamJandqTKziJQp1-96" value="" style="shape=ellipse;dashed=0;strokeColor=#999999;fillColor=#ffffff;html=1;rounded=0;shadow=1;fontSize=12;fontColor=#000000;align=center;" vertex="1" parent="1">
          <mxGeometry x="28.5" y="1215" width="14" height="14" as="geometry" />
        </mxCell>
        <mxCell id="wd0UZamJandqTKziJQp1-97" value="&lt;font style=&quot;font-size: 12px;&quot;&gt;4&lt;/font&gt;" style="html=1;shadow=0;dashed=0;shape=mxgraph.bootstrap.rrect;align=center;rSize=3;strokeColor=#9673a6;fillColor=#e1d5e7;fontStyle=1;fontSize=10;whiteSpace=wrap;rounded=0;" vertex="1" parent="1">
          <mxGeometry x="48.5" y="1207" width="200" height="30" as="geometry" />
        </mxCell>
        <mxCell id="wd0UZamJandqTKziJQp1-98" value="" style="shape=ellipse;dashed=0;strokeColor=#999999;fillColor=#ffffff;html=1;rounded=0;shadow=1;fontSize=12;fontColor=#000000;align=center;" vertex="1" parent="1">
          <mxGeometry x="27.5" y="1095" width="14" height="14" as="geometry" />
        </mxCell>
        <mxCell id="wd0UZamJandqTKziJQp1-99" value="&lt;font style=&quot;font-size: 12px;&quot;&gt;1&lt;/font&gt;" style="html=1;shadow=0;dashed=0;shape=mxgraph.bootstrap.rrect;align=center;rSize=3;strokeColor=none;fillColor=#58B957;fontColor=#ffffff;fontStyle=1;fontSize=10;whiteSpace=wrap;rounded=0;" vertex="1" parent="1">
          <mxGeometry x="49" y="1087" width="200" height="30" as="geometry" />
        </mxCell>
        <mxCell id="wd0UZamJandqTKziJQp1-103" value="Hide legend" style="html=1;shadow=0;dashed=0;shape=mxgraph.bootstrap.rrect;align=center;rSize=5;strokeColor=none;fillColor=#DB524C;fontColor=#ffffff;fontSize=16;whiteSpace=wrap;rounded=0;" vertex="1" parent="1">
          <mxGeometry x="459" y="328" width="170" height="40" as="geometry" />
        </mxCell>
        <mxCell id="wd0UZamJandqTKziJQp1-104" value="Reset map" style="html=1;shadow=0;dashed=0;shape=mxgraph.bootstrap.rrect;align=center;rSize=5;strokeColor=none;fillColor=#DB524C;fontColor=#ffffff;fontSize=16;whiteSpace=wrap;rounded=0;" vertex="1" parent="1">
          <mxGeometry x="459" y="398" width="170" height="40" as="geometry" />
        </mxCell>
        <mxCell id="wd0UZamJandqTKziJQp1-105" value="It clears the map and all selections" style="text;spacingTop=-5;whiteSpace=wrap;html=1;align=left;fontSize=12;fontFamily=Helvetica;fillColor=none;strokeColor=none;rounded=0;shadow=1;labelBackgroundColor=none;" vertex="1" parent="1">
          <mxGeometry x="660" y="403" width="330" height="30" as="geometry" />
        </mxCell>
        <mxCell id="wd0UZamJandqTKziJQp1-106" value="Show" style="html=1;shadow=0;dashed=0;shape=mxgraph.bootstrap.rrect;align=center;rSize=5;strokeColor=none;fillColor=#3D8BCD;fontColor=#ffffff;fontSize=16;whiteSpace=wrap;rounded=0;" vertex="1" parent="1">
          <mxGeometry x="51.5" y="1290" width="150" height="40" as="geometry" />
        </mxCell>
        <mxCell id="wd0UZamJandqTKziJQp1-107" value="Animate" style="html=1;shadow=0;dashed=0;shape=mxgraph.bootstrap.rrect;align=center;rSize=5;strokeColor=none;fillColor=#3D8BCD;fontColor=#ffffff;fontSize=16;whiteSpace=wrap;rounded=0;" vertex="1" parent="1">
          <mxGeometry x="240" y="1290" width="150" height="40" as="geometry" />
        </mxCell>
        <mxCell id="wd0UZamJandqTKziJQp1-108" value="Pause" style="html=1;shadow=0;dashed=0;shape=mxgraph.bootstrap.rrect;align=center;rSize=5;strokeColor=none;fillColor=#3D8BCD;fontColor=#ffffff;fontSize=16;whiteSpace=wrap;rounded=0;" vertex="1" parent="1">
          <mxGeometry x="240" y="1360" width="150" height="40" as="geometry" />
        </mxCell>
        <mxCell id="wd0UZamJandqTKziJQp1-109" value="Stop" style="html=1;shadow=0;dashed=0;shape=mxgraph.bootstrap.rrect;align=center;rSize=5;strokeColor=none;fillColor=#3D8BCD;fontColor=#ffffff;fontSize=16;whiteSpace=wrap;rounded=0;" vertex="1" parent="1">
          <mxGeometry x="240" y="1420" width="150" height="40" as="geometry" />
        </mxCell>
        <mxCell id="wd0UZamJandqTKziJQp1-110" value="Hide" style="html=1;shadow=0;dashed=0;shape=mxgraph.bootstrap.rrect;align=center;rSize=5;strokeColor=none;fillColor=#3D8BCD;fontColor=#ffffff;fontSize=16;whiteSpace=wrap;rounded=0;" vertex="1" parent="1">
          <mxGeometry x="49" y="1360" width="150" height="40" as="geometry" />
        </mxCell>
        <mxCell id="wd0UZamJandqTKziJQp1-111" value="Hide should stop the animation if it is running" style="text;spacingTop=-5;whiteSpace=wrap;html=1;align=left;fontSize=12;fontFamily=Helvetica;fillColor=none;strokeColor=none;rounded=0;shadow=1;labelBackgroundColor=none;" vertex="1" parent="1">
          <mxGeometry x="55" y="1490" width="110" height="50" as="geometry" />
        </mxCell>
        <mxCell id="wd0UZamJandqTKziJQp1-112" value="Keep" style="html=1;shadow=0;dashed=0;shape=mxgraph.bootstrap.rrect;align=center;rSize=5;strokeColor=none;fillColor=#3D8BCD;fontColor=#ffffff;fontSize=16;whiteSpace=wrap;rounded=0;" vertex="1" parent="1">
          <mxGeometry x="49" y="1420" width="150" height="40" as="geometry" />
        </mxCell>
      </root>
    </mxGraphModel>
  </diagram>
</mxfile>
